<svg width="16" height="16" viewBox="0 0 16 16" fill="none" xmlns="http://www.w3.org/2000/svg">
<path d="M14.6667 13.3333L13.3333 14.6667L9.33333 10.6667V9.33334H10.6667L14.6667 13.3333Z" fill="#1E1E1E"/>
<path d="M6 10.6667C3.39999 10.6667 1.33333 8.60001 1.33333 6.00001C1.33333 3.40001 3.39999 1.33334 6 1.33334C8.6 1.33334 10.6667 3.40001 10.6667 6.00001C10.6667 8.60001 8.6 10.6667 6 10.6667ZM6 2.66668C4.13333 2.66668 2.66666 4.13334 2.66666 6.00001C2.66666 7.86668 4.13333 9.33334 6 9.33334C7.86666 9.33334 9.33333 7.86668 9.33333 6.00001C9.33333 4.13334 7.86666 2.66668 6 2.66668Z" fill="#1E1E1E"/>
<path d="M8.41585 8.93417L8.88732 8.46283L10.537 10.113L10.0655 10.5843L8.41585 8.93417Z" fill="#1E1E1E"/>
</svg>
